# Blender 5.0.1
# www.blender.org
mtllib assembler.mtl
o Cube
v 1.193364 1.125000 1.193364
v 1.687500 -1.125000 1.687500
v -1.193364 1.125000 1.193364
v -1.687500 -1.125000 1.687500
v 1.193364 1.125000 -1.193364
v 1.687500 -1.125000 -1.687500
v -1.193364 1.125000 -1.193364
v -1.687500 -1.125000 -1.687500
v -0.058967 0.386919 -0.562500
v -0.058967 1.326414 -0.562500
v 0.058967 0.386919 -0.562500
v 0.058967 1.326414 -0.562500
v -0.562500 0.386919 0.562500
v -0.562500 1.326414 0.562500
v 0.562500 0.386919 0.562500
v 0.562500 1.326414 0.562500
v -0.562500 -1.278339 -1.731228
v -0.562500 -0.033018 -1.731228
v 0.562500 -1.278339 -1.731228
v 0.562500 -0.033018 -1.731228
v -0.562500 -1.278339 -0.606228
v -0.562500 -0.033018 -0.606228
v 0.562500 -1.278339 -0.606228
v 0.562500 -0.033018 -0.606228
vn -0.0000 1.0000 -0.0000
vn -0.9767 0.2145 -0.0000
vn -0.0000 0.2145 -0.9767
vn -0.0000 -1.0000 -0.0000
vn -0.0000 0.2145 0.9767
vn 0.9767 0.2145 -0.0000
vn -0.0000 -0.0000 -1.0000
vn 0.9127 -0.0000 -0.4085
vn -0.0000 -0.0000 1.0000
vn -0.9127 -0.0000 -0.4085
vn 1.0000 -0.0000 -0.0000
vn -1.0000 -0.0000 -0.0000
vt 0.938644 0.065945
vt 0.875000 0.500000
vt 0.875000 0.750000
vt 0.938644 1.079649
vt -0.075061 1.079649
vt 0.938644 2.093354
vt -0.075061 2.093354
vt -0.075061 -1.961464
vt 0.938644 -1.961464
vt 0.938644 -0.947759
vt -0.075061 -0.947759
vt 0.125000 0.500000
vt -0.075061 0.065945
vt 0.125000 0.750000
vt 0.375000 0.000000
vt 0.625000 0.000000
vt 0.625000 0.250000
vt 0.375000 0.250000
vt 0.625000 0.500000
vt 0.375000 0.500000
vt 0.625000 0.750000
vt 0.375000 0.750000
vt 0.625000 1.000000
vt 0.375000 1.000000
s 0
usemtl Material
f 1/1/1 5/2/1 7/3/1 3/4/1
f 8/8/3 7/9/3 5/10/3 6/11/3
f 6/12/4 2/13/4 4/5/4 8/14/4
f 11/12/4 15/20/4 13/22/4 9/14/4
f 23/20/9 24/19/9 22/21/9 21/22/9
usemtl Top_Arrow
f 9/15/7 10/16/7 12/17/7 11/18/7
f 11/18/8 12/17/8 16/19/8 15/20/8
f 15/20/9 16/19/9 14/21/9 13/22/9
f 13/22/10 14/21/10 10/23/10 9/24/10
f 16/19/1 12/2/1 10/3/1 14/21/1
usemtl Conveyor_Chute
f 17/15/7 18/16/7 20/17/7 19/18/7
f 19/18/11 20/17/11 24/19/11 23/20/11
f 21/22/12 22/21/12 18/23/12 17/24/12
f 19/12/4 23/20/4 21/22/4 17/14/4
f 24/19/1 20/2/1 18/3/1 22/21/1
usemtl Assembler_Side
f 4/5/2 3/4/2 7/6/2 8/7/2
f 2/13/5 1/1/5 3/4/5 4/5/5
f 6/11/6 5/10/6 1/1/6 2/13/6
