# Blender 5.0.1
# www.blender.org
mtllib mining_drill_improved.mtl
o Cube
v 3.000000 -1.000000 3.000000
v 3.000000 1.000000 3.000000
v -3.000000 -1.000000 3.000000
v -3.000000 1.000000 3.000000
v 1.135592 -1.000000 -3.000000
v 1.135592 1.000000 -3.000000
v -1.135592 -1.000000 -3.000000
v -1.135592 1.000000 -3.000000
v 0.903163 -1.050943 -2.051003
v 0.903163 0.546616 -2.051003
v -0.903163 -1.050943 -2.051003
v -0.903163 0.546616 -2.051003
v 0.903163 -1.050943 -3.857329
v 0.903163 0.546616 -3.857329
v -0.903163 -1.050943 -3.857329
v -0.903163 0.546616 -3.857329
vn -0.0000 -0.0000 1.0000
vn -0.9550 -0.0000 -0.2967
vn -0.0000 -0.0000 -1.0000
vn 0.9550 -0.0000 -0.2967
vn -0.0000 -1.0000 -0.0000
vn -0.0000 1.0000 -0.0000
vn -1.0000 -0.0000 -0.0000
vn 1.0000 -0.0000 -0.0000
vt 0.375000 0.000000
vt 0.625000 0.000000
vt 0.625000 0.250000
vt 0.375000 0.250000
vt 0.625000 0.500000
vt 0.375000 0.500000
vt 0.625000 0.750000
vt 0.375000 0.750000
vt 0.625000 1.000000
vt 0.375000 1.000000
vt 0.125000 0.500000
vt 0.125000 0.750000
vt 0.155310 -0.310791
vt 1.205939 0.288692
vt 0.606455 1.339321
vt -0.444174 0.739837
vt 0.875000 0.500000
vt 0.875000 0.750000
s 0
usemtl Material
f 1/1/1 2/2/1 4/3/1 3/4/1
f 3/4/2 4/3/2 8/5/2 7/6/2
f 7/6/3 8/5/3 6/7/3 5/8/3
f 5/8/4 6/7/4 2/9/4 1/10/4
f 3/11/5 7/6/5 5/8/5 1/12/5
f 9/1/1 10/2/1 12/3/1 11/4/1
usemtl chute
f 11/4/7 12/3/7 16/5/7 15/6/7
f 15/6/3 16/5/3 14/7/3 13/8/3
f 13/8/8 14/7/8 10/9/8 9/10/8
f 11/11/5 15/6/5 13/8/5 9/12/5
f 16/5/6 12/17/6 10/18/6 14/7/6
usemtl miner_top
f 8/13/6 4/14/6 2/15/6 6/16/6
